<?xml version="1.0" encoding="UTF-8"?>
<!DOCTYPE svg PUBLIC "-//W3C//DTD SVG 1.1//EN" "http://www.w3.org/Graphics/SVG/1.1/DTD/svg11.dtd">
<!-- Creator: CorelDRAW -->
<svg xmlns="http://www.w3.org/2000/svg" xml:space="preserve" width="0.666665in" height="0.663681in" version="1.1" style="shape-rendering:geometricPrecision; text-rendering:geometricPrecision; image-rendering:optimizeQuality; fill-rule:evenodd; clip-rule:evenodd"
viewBox="0 0 666.66 663.68"
 xmlns:xlink="http://www.w3.org/1999/xlink"
 xmlns:xodm="http://www.corel.com/coreldraw/odm/2003">
 <defs>
  <style type="text/css">
   <![CDATA[
    .fil1 {fill:#00B892}
    .fil0 {fill:#1C1C1C}
    .fil3 {fill:#55636C}
    .fil4 {fill:#D87D03}
    .fil2 {fill:#FBA216}
   ]]>
  </style>
 </defs>
 <g id="Layer_x0020_1">
  <metadata id="CorelCorpID_0Corel-Layer"/>
  <g id="_3048192671104">
   <path class="fil0" d="M62.34 235.33c17.91,-4.27 15,-0.67 28.68,-0.42 9.98,0.18 14.42,-2.29 32.8,-0.43l34.96 0.04c4.2,-0.5 7.57,-0.5 12.11,-0.5 6.54,0.01 22.67,1.08 25.93,0.74l25.22 0.08c8.96,1.07 10.32,-5.11 24.01,0.48 -8.28,8.61 -13.93,28.79 -16.77,41.51 -4.27,19.1 -4.88,37.11 -5.02,56.65 -33.21,2.71 -18.91,-3.37 -41.81,8.74 -5.54,2.93 -7.52,4.2 -9.25,9.59 -9.33,29.05 -6.2,105.39 -5.61,138.59 0.41,23.05 2.04,50.7 0.48,73.29 -1.41,20.45 -4.42,46.88 -0.28,67.05 4.72,22.99 17.1,29.71 42.07,32.13 22.79,2.21 45.44,-0.65 68.15,-2.57 5.44,-0.46 11.55,-0.99 17.28,-1.03 13.44,-0.09 29.74,-1.45 43.44,-0.04 0.44,0.04 2.43,0.19 3.17,0.13 4.43,-0.33 -0.94,-0.93 4.28,-0.93l89.56 0.69c7.24,0.65 19.36,-1.33 28.91,-0.19 8.95,1.07 14.5,-4.77 22.34,-9.06 6.54,-3.57 4.07,-2.53 6.51,-9.8 5.02,-14.91 5.24,-27.61 4.63,-43.73 -0.8,-21.18 -0.36,-42.86 -0.36,-64.1 0,-42.61 -0.57,-85.62 0.02,-128.19 0.27,-19.42 3.59,-41.84 -6.68,-57.27 -8.09,-12.15 -31.19,-13.2 -49.08,-14.54 0,-18.17 1.31,-39.51 -2.52,-56.66 -2.99,-13.36 -10.86,-33.4 -18.71,-40.28 12.54,-6.02 25.2,-0.57 31.36,-0.27 9.83,0.49 0.72,-2.11 10.43,-2.11l19.62 0c9.22,0 2.77,3.71 13.79,1.08 8.79,-2.09 21.2,-2.2 29.94,-0.04 10.76,2.67 5.17,-1.04 15.14,-1.04l23.55 0c8.13,0 4.12,2.92 11.71,1.89 6.65,-0.9 22.7,-6.31 29.84,-2.59 9.04,4.71 15.07,-3.96 27.6,-10.02 4.98,-2.41 7.34,-3.67 11.44,-6.86 21.29,-16.59 21.42,-54.03 21.42,-80.76 0,-9.76 -1.37,-19.25 -1.32,-28.78 0.13,-28.63 5.5,-70.55 -18.6,-88.65 -5.79,-4.35 -16.05,-11.38 -24.26,-12.65 -6.67,-1.02 -11.56,-3.87 -14.64,-3.87l-34.5 0.42c-5.02,0.69 -12.59,0.46 -17.89,0.63 -7.63,0.23 -12.59,-1.71 -16.81,-1.43 -5.69,0.39 -10.08,2.43 -18.29,1.4l-16.07 0.04c-13.7,1.51 -17.9,-1.01 -26,-1.62 -9.1,-0.69 -11.93,3.76 -26.74,0.87 -9.8,-1.91 -6.85,1.11 -16.39,0.94 -9.82,-0.18 -5.1,-2.79 -16.26,-0.68 -11.66,2.2 -28.95,-1.94 -36,-0.9 -19.11,2.83 -22.43,-1.46 -33.5,0.87 -5.06,1.07 -11.91,0.96 -16.96,-0.03 -10.83,-2.11 -22.33,2.51 -35.03,-0.28 -6.99,-1.53 -26.75,2.85 -42.99,-0.32l-9.66 0.59c-6.74,1.46 -10.22,0.67 -16.5,-0.58 -4.13,-0.82 -27.28,1.84 -36.36,1.23 -6.13,-0.42 -3.22,-1.02 -8,-1.52l-18.22 1.49c-6.42,0 -23.66,-2.05 -25.44,-1.78 -19.21,2.87 -34.67,-1.06 -53.07,0.67 -3.07,0.29 -26.67,2.33 -27.56,2.23 -12.17,-1.37 -8.05,-2.76 -21.16,5.52 -5.31,3.35 -16.32,7.7 -18.9,11.61 -2.46,3.74 -1.99,6.3 -4.36,9.97 -6.72,10.41 -10.27,20.48 -11.77,32.87 -3.62,29.96 -5.2,82.66 -0.5,112.55 1.69,10.7 4.52,23.61 11.35,32.13 1.5,1.86 2.11,2.08 3.69,4.07 1.21,1.54 2.29,3.52 3.23,4.63l21.73 14.23c4.95,1.89 8.61,-0.67 13.46,1.61l5.98 3.22zm317.63 97.69c4.33,-17.13 0.67,-57.98 -16.5,-74.42 -4.01,-3.84 -22.88,-18.08 -33.12,-14.04l-12.69 8.26c-19.09,13.28 -26.81,15.9 -30.87,40.61 -1.15,6.99 -0.8,14.24 -0.85,21.7 -0.12,18.46 -6.2,20.06 26.3,19.61l33.92 0.65c1.83,-0.12 3.33,-0.44 4.57,-0.57 8.78,-0.9 21.02,1.98 29.24,-1.8z"/>
   <path class="fil1" d="M96.87 101.66c-3.99,-2.6 -4.13,-2.09 -5.67,-4.98 12.69,-12.86 22.73,2.83 32.85,6.85 0.57,-16.26 -1.74,-23.19 8.17,-24.53 12.2,-1.65 7.7,15.35 8.21,25.48 11.61,-4.74 18.99,-18.33 33.2,-12.11 -0.96,9.68 -17.92,13.15 -29.91,24.97 5.11,3.61 27.81,16.26 29.76,21.45 -2.83,1.43 -6.49,2.88 -10.7,4.68 -3.48,1.49 -6.9,3 -7.58,5.31 -7.59,3.32 -102.52,64.06 -106.42,68.68 8.22,2.38 14.99,5.44 24.89,6.83 9.08,1.28 14.55,-4.58 22.38,-8.94 12.29,-6.85 30.4,-20.1 42.83,-23.93 -2.03,2.65 -0.17,0.87 -3.25,3.41 -1.94,1.6 -1.09,0.78 -3.25,2.15 -2.57,1.64 -4.2,2.73 -6.34,4.01 -11.77,7.02 -28.47,15.75 -38.13,24.59 8.02,0.75 16.83,1.76 23.11,-1.76 5.89,-3.31 11.43,-6.61 17.32,-10.18 14.32,-8.66 92.9,-55.29 102.9,-58.52l-81.21 52.87c-6.34,3.87 -21.34,15.39 -26.55,17.46 25.16,3.98 32.44,-11.31 52.82,-17.96l-1.51 1.47c-0.17,0.15 -0.54,0.51 -0.76,0.69 -6.92,5.79 -17.41,8.91 -23.62,16.06 28.05,0.05 23.37,-2.61 48.12,-16.43 16.2,-9.05 115.44,-68.8 127.27,-72.68 -5.37,7.03 -92.13,61.29 -101.52,67.13 -11.33,7.04 -22.99,14.61 -32.95,21.82 21.28,1.27 22.46,-1.25 37.22,-9.81 8.21,-4.76 23.58,-15.01 32.06,-17.72 -5,6.47 -13.78,10.04 -20.94,14.58 -5.47,3.48 -15.5,8.67 -19.69,13.02 38.34,1.15 31.82,1.13 45.32,-9.67 17.3,-13.83 43.01,-23.41 66.48,-23.8 17.49,-0.29 10.61,1.61 24.09,-6.04 10.07,-5.72 28.64,-17.85 39.07,-21.61 -11.72,11.78 -30.48,17.84 -43.14,28.7 28.44,7.86 15.53,1.93 36.74,-5.38 -0.25,0.28 -0.65,0.31 -0.79,0.82 -0.14,0.5 -0.59,0.62 -0.79,0.79l-5.6 4.02c-2.66,1.73 -5.28,3.21 -7.48,5.25 10.3,8.84 13.35,5.91 20.02,3.54 -0.26,0.29 -0.69,0.3 -0.82,0.83 -0.52,2.13 -2.7,2.49 -3.62,4.51 8.77,3.98 12.98,10.08 19.51,13.89 17.18,-6.31 43.01,-28.15 60.49,-33.79 -9.5,11.59 -42,26.75 -54.59,37.94 23.68,0.59 25.55,-2.87 44.77,-14.27 9.81,-5.81 30.78,-19.52 40.37,-22.56l-25.94 18.85c-6.06,4.17 -21.92,13.88 -25.33,18.04 28.78,0.26 23.5,-2.94 51.28,-18.37 14.47,-8.03 31.74,-20.89 46.96,-26.11l-1.57 1.76c-12.94,12.66 -29.37,20.72 -43.47,31.6 -3.51,2.71 -11.94,7.69 -14.23,11.15 11.4,0 17.28,1.85 25.79,-3.63 11.89,-7.66 50.97,-30.82 60.51,-34.2 -6.96,9.25 -26.51,21.09 -36.23,28.5 -1.93,1.47 -3.18,2.35 -5.98,4.55l-5.46 4.48c22.83,2.61 27.65,-3.99 43.71,-13.48 11.77,-6.96 24.88,-16 37.72,-21l-18.03 17.17c-4.41,3.91 -16.07,11.95 -19.01,17.43 33.5,0.11 23.26,-7.5 48.28,-15.87 -2.01,5.47 -4.74,7.09 -9.14,11.44 19.01,-3.73 33.81,-21.89 38.18,-40.86 -8.36,3.03 -14.74,9.35 -23.69,12.52 4.67,-8.36 21.27,-17.46 25.36,-24.05 2.28,-3.67 1.69,-10.59 1.39,-15.3 -12.11,4.78 -25.95,16.72 -38.17,20.83 1.3,-1.67 1.58,-2.26 4.06,-4.32l34.08 -26.14 -0.39 -12.7c-16.25,7.87 -32.45,21.72 -49.88,27.65 1.56,-2.16 0.43,-1.14 2.86,-3.37 6.42,-5.87 39.94,-29.77 46.2,-32.2l-0.59 -13.41c-11.09,2.38 -34.97,21.37 -48,26.18 11.68,-10.5 27.55,-19.73 41.01,-28.34 8.18,-5.23 6.7,-6.47 6.42,-17.24 -16.08,5.22 -31.51,20.17 -47.56,26.15 9.45,-9.28 24.12,-16.24 35.05,-24.15l12.53 -8.75 -0.67 -23.48c-5.16,0.05 -18.41,9.69 -25.1,12.07 1.26,-1.39 0.7,-0.93 2.37,-2.31 6.47,-5.31 17.67,-8.81 21.57,-15.67l-2.71 -8.74c-6.72,1.91 -16.42,8.76 -22.95,12.4 -7.27,4.04 -17.15,10.91 -24.38,13.24 1.41,-1.7 0.65,-0.96 2.31,-2.51 1.02,-0.95 2.06,-1.76 3.05,-2.45 1.84,-1.28 3.18,-1.96 5.66,-3.43 11.2,-6.61 22.67,-15.55 33.92,-21 -1.94,-5.07 -2.78,-6.09 -6.56,-9.16l-64.15 36.67c-5.77,3.33 -16.37,10.35 -22.35,12.17 0.97,-1.06 1.02,-1.18 2.22,-2.24 13.06,-11.57 62.55,-38.25 79.89,-51.44 -46.9,-36.64 -45.78,-4.25 -85.35,8.21 7.98,-10.58 32.11,-16.94 39,-26.72 -26.31,-0.14 -16.56,-1.84 -47.04,15.89l-79.6 45.96c-14.11,7.81 -27.46,16.86 -41.49,23.72 -5.96,3.31 -8.33,2.72 -8.36,10.82 10.73,-2.8 19.58,-18.87 33.28,-12.66 -1.59,5.11 -16.06,13.29 -22.5,17.47l-6.76 5.41c-0.12,-0.23 -0.46,0.54 -0.67,0.82 5.52,2.59 27.92,16.85 30.41,21.89 -7.67,17.39 -25.34,-3.99 -33.68,-6.17l-0.31 18.39c-4.72,2.21 -8.04,4.08 -15.59,2.92l-0.1 -24.78c-11.59,5.47 -18.62,16.92 -33.1,13.67 1.26,-6.25 9.25,-9.51 13.93,-12.57 4.76,-3.13 12,-7.19 15.35,-11.08 -4.75,-4.32 -10.35,-7.44 -16.35,-11.43 -5.22,-3.47 -12.31,-6.07 -13.66,-12.39 11.39,-12.31 24.42,2.72 33.36,7.78 1.82,-13.76 -4.75,-23.16 16.31,-21.94l0.31 16.33c2.65,-1.46 5.33,-3.06 8.55,-4.41 1.04,-2.22 56.61,-37.78 62.92,-41.84l48.56 -31.25c5.44,-3.38 13.01,-6.19 15.81,-11.88 -17.3,-0.07 -15.76,-1.33 -28.45,5.89 -6.69,3.81 -16.48,10.48 -23.28,12.73 0.25,-0.27 0.64,-1.04 0.78,-0.8l11.81 -8.36c4.89,-3.07 7.99,-3.93 11.99,-8.58 -22.74,-2.38 -22.57,2.28 -39.04,11.68 -13.85,7.91 -93.17,54.74 -100.89,57.22l2.38 -2.53c10.39,-9.13 97.16,-60.04 101.69,-65.95 -27.8,0.09 -18.1,-0.21 -44.56,14.39 -9.92,5.48 -28.87,18.25 -38.68,21.41 0.26,-0.31 0.65,-1.17 0.81,-0.91l5.7 -4.48c2.92,-1.84 4.63,-2.96 7.19,-4.5l27.31 -17.15c2.13,-1.39 4.26,-2.47 6.59,-3.94 2.52,-1.59 4.24,-3.38 5.98,-4.48 -9.57,-0.84 -19.3,0.26 -26.85,-0.15 -15.82,-0.85 -14.28,-0.92 -25.6,5.42l-118.55 68.24c-8.21,4.65 -6.5,3.42 -5.71,20.98 13.26,-9.32 25.49,-20.43 33.15,-9.97 -1.78,8.83 -23.41,15.43 -29.52,23.88l28.29 19.29c-11.21,13.47 -22.96,-2.13 -32.38,-6.35l-0.36 20.68c-3.24,2.68 -8.37,5.94 -13.89,2.74 -3.11,-2.68 -1.79,-15.68 -1.93,-23.17 -9.4,3.55 -24.17,21.42 -33.58,10.03 1.01,-6.62 8.57,-9.07 13.57,-12.59 5.48,-3.84 10.87,-6.87 15.56,-10.96l-28.5 -20.34c16.31,-11.17 19.93,0.79 32.78,6.57l0.91 -21.34c5.56,-3.13 9.04,-4.83 14.07,-1.61 6.01,3.84 -4.87,-4.09 1.41,1.25l6.46 -1.15c1.06,-2.56 21.34,-14.91 25.65,-17.55l83.05 -54.16c-23.15,0 -19.57,-0.91 -44.54,14.29 -8.4,5.11 -30.09,18.76 -38.61,21.47 6.93,-8.76 47.71,-28.47 53.05,-35.76 -24.07,0 -17.87,-0.57 -35.34,9.07 -8.26,4.56 -20.88,13.23 -29.36,16.06l1.58 -1.66c1.33,-1.18 0.79,-0.81 2.42,-2.01 0.64,-0.47 3.33,-2.13 4.74,-3.06l27.79 -18.24c-18.87,-1.07 -18.98,-1.09 -32.53,7.12 -11.05,6.69 -72.68,42.93 -80.1,45.4 0.25,-0.32 0.63,-1.19 0.78,-0.94 0.34,0.57 0.83,-1.68 8.79,-6.58l49.2 -31.89c4.37,-2.75 17.09,-10.93 19.03,-13.27 -25.38,-0.1 -21.63,1.06 -40.2,11.85l-66.39 38.27c-8.63,5.22 -26,16.24 -34.81,19.27l49.7 -34.61c8.87,-6.06 16.42,-11.32 24.75,-17.06 5.54,-3.82 22.32,-13.79 25.18,-17.74 -35.81,0 -18.15,3.43 -39.61,10.66l7.02 -5.64c2.6,-1.79 4.75,-3.33 6.27,-5 -21.67,-0.13 -17.5,-1.33 -33.48,8.03 -8.77,5.13 -18.28,10.58 -27.47,15.71 -9.76,5.45 -18.18,10.26 -27.45,15.75 -7.91,4.68 -19.85,12.6 -27.84,15.36 8.32,-8.74 61.9,-43.79 73.99,-54.72 -24.17,-1.19 -23.37,1.54 -49.94,17.24 -7.76,4.58 -37.14,22.2 -43.61,24.37 6.37,-6.91 29.49,-23.11 39.8,-30.91 4.19,-3.17 9.93,-7.08 13.46,-10.87 -9.66,-0.42 -9.87,-1.11 -19.13,-0.08l-5.04 -0.48c-11.67,-3.62 -15.14,-1.77 -23.96,2.98l0 -5.37c-27.86,-0.91 -28.99,12.53 -55.4,22.62 1.81,-4.57 7.38,-8.27 14.36,-17.07 -25.02,8.36 -38.28,39.55 -41.27,73.15 12.58,-5.61 32.09,-19.89 43.41,-23.87 -0.23,0.27 -0.61,0.3 -0.73,0.77 -0.12,0.46 -0.56,0.59 -0.73,0.75 -0.16,0.15 -0.53,0.53 -0.73,0.72l-3.56 3.12c-2.62,2.22 -4.32,3.46 -6.56,5.15l-27.11 20.03c-6.33,4.75 -6.06,7.65 -4.95,17.37l66.23 -37.25 -66.48 48.49 0.39 11.72c3.36,1.82 -4.09,-1.09 1.78,0.35l1.45 0.37c0.16,0.04 0.65,0.21 0.79,0.25 0.14,0.04 0.57,0.13 0.82,0.27 -6.83,2.61 -4.29,6.11 -3.75,14.31 6.1,-1.77 67.91,-39.8 81.26,-45.87z"/>
   <path class="fil2" d="M394.24 449.26c-3.76,2.82 -2.86,0.67 -1.11,7.03 0.76,2.78 1.69,5.29 2.17,8.37 3.66,23.38 -6.77,42.4 -24.08,56.05 -19.73,15.56 1.32,26.28 -14.4,45.73 -13.65,16.89 -44.35,17.22 -52.52,-5.32 -4.61,-12.75 4.44,-27.72 -5.13,-35.48 -3.7,-3.01 -7.66,-4.83 -11.64,-8.01 -9.38,-7.5 -3.91,-7.46 -10.81,-8.98 -0.74,0.95 -0.33,0.68 -1.89,2.04 -8.46,7.36 -55.99,36.76 -66.57,43.31 -7.13,4.41 -16.36,11.93 -23.3,14.41l-0.07 13.43c6.84,-2.19 22.55,-12.68 29.51,-16.57 8.68,-4.85 21.66,-13.72 30.5,-16.64 -1.93,2.52 -0.24,0.94 -3.2,3.37l-42.26 27.12c-14.24,8.86 -14.56,5.6 -14.56,21.72 13.85,-5.13 29.08,-19.07 42.87,-23.45 -0.25,0.31 -0.64,0.36 -0.8,0.91 -0.16,0.59 -1.31,1.42 -1.59,1.67 -6.31,5.58 -35.68,23.66 -40.31,25.2l0.53 12.35c12.87,-2.39 35.6,-22.38 50.04,-27.02 -3.13,3.96 -7.86,6.57 -11.81,9.07l-36.86 23.33 3.58 10.25c8.64,-2.4 56.36,-31.9 67.65,-38.5 6,-3.51 17.72,-10.83 24.2,-13.05l-21.24 14.79c-13.23,8.41 -56.4,34.65 -65.24,43.1 13.63,9.03 15.44,3.81 29.32,-4.58 12.21,-7.39 79.34,-47.01 87.52,-49.66l-22.8 16.39c-7.51,4.91 -15.61,10.44 -22.8,15.13 -8.64,5.63 -35.79,22.13 -43.24,28.86l-2.23 2.34c21.48,1.61 17.79,1.03 33.54,-7.91 15.81,-8.96 72.57,-43.98 84.51,-47.94l-19.98 14.47c-13.47,9.21 -51.9,33.71 -61.29,41.93 13.73,0.25 17.5,2.1 29.05,-4.94l44.73 -25.88c5.91,-3.36 16.77,-10.33 23.38,-12.58l-29.9 21.81c-9.8,7.02 -23.17,14.64 -30.83,21.64 30.54,0.19 23.79,-2.43 56.57,-20.82 8.3,-4.65 15.58,-9.07 24.04,-13.9 6.02,-3.44 19.31,-12.08 25.87,-14.06 -6.19,8.65 -53.69,41.16 -62.79,48.65 24.45,1.15 27.2,-3.33 46.39,-14.68 8.61,-5.09 32.11,-19.95 40.27,-22.44l-4.94 5.63c-12.2,10.91 -26.76,19.48 -38.07,31.21 21.23,3.16 18.14,-0.6 33.15,-6 -1.95,1.99 -4.85,4.59 -6.56,6.4 13.03,0.11 17.73,1.72 27.64,-3.65 0.04,0.14 -0.11,0.25 -0.11,0.43 -0.06,2.69 -1.44,0.93 0.11,3.26 23.76,0 11.96,1.55 31.62,-6.61 -1.35,3.19 -2.07,3.63 -3.58,6.33 15.93,0.32 19.81,-28.4 19.39,-41.17l0.91 -17.8c-13.84,4.98 -25.56,16.4 -39.1,21.46 4.89,-5.15 12.74,-11.63 18.82,-16.46 21.6,-17.15 19.42,-12.22 19.27,-29.61 -5.81,2.49 -8.32,4.59 -13.74,7.68 -12.24,6.98 -28.32,18.78 -41.63,23.14l26.64 -21.17c4.86,-3.63 8.57,-6.4 13.47,-10.08 4.43,-3.32 10.24,-7.09 14.11,-11.11l-0.74 -12.61c-14.14,7.21 -35.98,22.84 -49.8,27.52 0.23,-0.31 0.59,-1.13 0.72,-0.89 0,0 0.59,-2.06 13.04,-9.87l27.97 -19.14c9.8,-6.74 7.54,-3.45 7.67,-18.35 -5.44,1.93 -11.81,6.39 -16.91,9.21 -15.41,8.52 -34.41,22.99 -51.06,28.63l56.94 -39.84c11.41,-7.78 11.4,-3.8 11.68,-20.74 -14.95,7.62 -30.53,17.3 -44.94,25.51 -13.55,7.71 -31.04,20.17 -45.23,25.42 8.24,-7.55 71.35,-48.87 85.26,-57.39 7.65,-4.69 5.49,-5.25 5.79,-16.21 -13.98,5.31 -30.27,16.57 -43.46,24.36 -12.37,7.31 -31.01,20 -44.16,24.67 1.23,-1.39 0.71,-0.97 2.31,-2.33 8.33,-7.07 80.33,-53.15 85.78,-55.48l0.41 -13.06c-18.39,5.96 -38.48,24.96 -57.1,31.61 0.26,-0.27 0.65,-1.04 0.79,-0.79 0.14,0.24 0.6,-0.6 0.79,-0.76 0.19,-0.16 0.56,-0.52 0.79,-0.71 0.22,-0.18 0.56,-0.46 0.8,-0.65 9.48,-7.33 48.02,-31.78 53.93,-33.68l0.3 -13.08c-14.91,4.99 -33.01,21.2 -48.27,26.31 1.51,-1.8 0.41,-0.77 2.37,-2.44 8.85,-7.5 44.48,-25.59 45.89,-30.78l-0.06 -10.88c-22.14,8.44 -42.43,28.58 -65.25,36.23l1.57 -1.69c6.72,-6.11 58.14,-38.46 63.33,-40.27l-0.61 -12.86c-7.68,3.48 -14.27,7.96 -22.07,12.32l-66.86 38.78z"/>
   <path class="fil2" d="M276.73 508.65c1.39,-3.83 -1.02,-5.26 -3.32,-10.83 -27.23,-65.89 77.12,-113.5 112.75,-56.55 3.76,6.01 1.97,8.32 8.43,6.06 1.35,-2.9 36.63,-24.67 43.06,-29l44.68 -28.04 -1.37 -12.56 -21.33 11.6c2.4,-3.98 4.67,-4.71 9.33,-7.74 3.5,-2.28 6.98,-4.58 10.97,-6.17 -0.89,-9.89 -5.53,-15.46 -8.95,-21.43 -10.48,2.34 -44.05,26.57 -57.37,31.01 0.25,-0.31 0.64,-1.14 0.79,-0.89l50.4 -33.55c-13.59,-8.49 -20.84,-0.53 -32.35,6.36 -9.92,5.94 -20.56,11.97 -30.78,17.63 -11.13,6.17 -53.98,32.41 -61.94,35 6.46,-6.49 36.88,-25.7 46.56,-32.15l42.05 -27.25c3.69,-2.12 3.66,-1.88 6.02,-4.87 -9.63,-0.17 -64.24,-0.83 -68.86,0.94 -9.24,3.52 -35.63,22.23 -45.48,25.44l36.37 -26.14c-24.04,-1.58 -21.57,0.72 -43.83,13.17 -10.53,5.89 -27.49,17.41 -37.53,20.83l44.82 -34.05 -41.72 -0.21c-10.86,0.41 -18.3,10.95 -29.55,14.22 2.5,-2.12 5.03,-4.91 8,-7.12 3.36,-2.51 5.99,-4.37 8.73,-7.19 -64.46,-4.17 -38.54,2.47 -71.03,15 1.64,-5.55 4.76,-7.91 6.49,-13.1 -17.53,8.37 -19.34,22.73 -19.88,46.75l9.6 -4.34c-3.86,4.57 -4.24,4.83 -9.47,7.43l0.93 27.57c5.63,-0.96 30.55,-18.16 38.46,-20.61l-37.54 27.98 0.82 13.16 24.08 -13.26c-3.07,6.01 -18.33,14.7 -23.67,17.68l1.01 39.44c8.16,-2.79 70.77,-42.13 81.85,-45.93l-20.28 14.66c-11.93,7.93 -55.29,38.02 -61.65,40.29l-0.16 13.7c7.59,-3.22 16.49,-8.96 23.29,-12.82 7.47,-4.24 15.74,-10.26 23.64,-12.89l-46.71 30.52 -0.07 27.43c8,-2.67 16.67,-10.57 25.3,-13.35 -7.48,8.16 -24.27,14.02 -25.41,18.77l0 10.96c13.63,-5.34 82.68,-49.77 91.85,-51.58z"/>
   <path class="fil0" d="M276.73 508.65c6.9,1.52 1.43,1.48 10.81,8.98 3.98,3.18 7.94,5 11.64,8.01 9.57,7.77 0.51,22.74 5.13,35.48 8.17,22.54 38.87,22.2 52.52,5.32 15.72,-19.45 -5.33,-30.17 14.4,-45.73 17.31,-13.65 27.74,-32.67 24.08,-56.05 -0.48,-3.09 -1.41,-5.59 -2.17,-8.37 -1.75,-6.36 -2.65,-4.21 1.11,-7.03l0.34 -1.93c-6.45,2.26 -4.67,-0.05 -8.43,-6.06 -35.63,-56.96 -139.98,-9.35 -112.75,56.55 2.3,5.57 4.72,7 3.32,10.83z"/>
   <path class="fil3" d="M246.71 261.12c5.93,-3.43 18.54,-11.2 24.77,-12.89 -19.22,21.08 -29.63,14 -30.12,37.38 9.48,-3.72 16.39,-10.72 27.22,-14.19l-28.07 21.49 -0.63 11.75c7.12,2.43 -1.18,-1.76 4.51,1.09l2.31 1.52c-9.82,5.44 -7.85,6.46 -8.07,20.93l7.67 -2.02c-1.7,5.46 -0.22,3.44 -4.74,7.13l27.57 0.2 -0.16 -9.23 -5.26 0c7.06,-6.79 6.38,-19.09 3.64,-23.65 -0.18,-0.3 -0.55,-0.69 -0.72,-0.93 -0.17,-0.24 -0.53,-0.59 -0.79,-0.9 8.04,-5.18 1.16,-12 11.16,-29.39 4.78,-8.31 11.6,-15.07 19.78,-20.67 23.6,-16.15 37.67,-9.1 47.21,-14.37 5.98,-3.3 7.09,-5.25 14.99,-7.77 0.06,7.29 -0.56,6.17 -3.63,11.33l5.83 3.43c13.24,6 7.34,-0.54 18.6,-2.06 -2.18,6 -1.89,3.77 -5.25,9.1 2.83,4.01 5.28,5.29 8.56,10.18l7.94 -3.87c-5.22,13.41 -5.44,4.53 0.88,19.8 4.56,11.01 4.93,33.78 4.83,45.83 0.24,0.07 0.66,-0.18 0.76,0.07 0.1,0.26 0.64,0.05 0.78,0.03 7.83,-0.83 -5.82,1.37 1.66,-0.18 2.05,-0.43 1.53,-0.53 3.72,-1.23 -2.93,5.76 -6.81,5.91 -6.75,13.09 3.87,2.09 24.91,0.42 28.82,-0.17l-0.01 -15c-2.65,1.69 -3.18,2.99 -6.5,0.48 8.24,-7.28 7.56,-11.28 6.09,-26.69 -0.37,-3.88 -2.48,-18.02 -4.5,-21.47 -2.83,-4.83 -0.16,0.02 -3.59,-2.56 3.04,-4.83 -1.02,-9.2 -2.96,-14.76 -5.07,1.6 -3.47,2.06 -8.79,3.3 2.08,-4.46 3.45,-5.96 5.06,-10.06l-6.75 -8.95c-4.5,1.14 -5.91,2.99 -10.85,4.38l5.67 -10.74c-3.04,-2.15 -5.5,-4.53 -8.31,-7.3 -1.93,-1.9 -1.98,-2.34 -3.94,-3.88 -4.81,-3.78 -21.89,-15.43 -28.37,-11.85l-0.46 -1.42c-3.82,-6.18 -29.71,-4.55 -35.58,-3.91 -30.63,3.37 -65.65,26.53 -75.22,59.57z"/>
   <path class="fil4" d="M318.69 523.02c-0.03,10.4 -1.88,21.85 0.74,32.08 1.96,7.65 9.91,16.35 18.92,15.19 12.26,-10.35 5.69,-28.32 9.38,-41.73 1.63,-5.95 16.03,-8.13 25.74,-26.57 21.49,-40.81 -13.93,-93.2 -60.5,-76.22 -13.17,4.8 -21.38,13.49 -25.17,27.18 -8.72,31.43 11.94,61.65 30.91,70.07z"/>
   <path class="fil1" d="M97.65 104.31c-6.54,3 -15.13,9.54 -20.98,13.31l-59.41 40.54 0.79 12.43 61.81 -32.74 -60.39 39.93 2.82 9.95c8.09,-1.87 20.41,-12.57 29.83,-15.63l-27.54 18.76c0.73,4.72 2.42,6.43 5.05,9.35 13.64,-6.02 40.48,-24.8 52.93,-29.3 -3.85,4.24 -20.37,14.2 -24.75,16.78 -6.04,3.56 -20.12,11.72 -25.24,16.25l7.09 7.69 105.04 -60.12c4.76,-2.87 3.1,-3.15 8.09,-3.31 2.23,-3.18 3.4,-3.54 6.09,-5.26l-18.63 -11.41c0,4.75 1.06,16.48 -0.8,20.15 -2.04,4.02 -8.98,5.57 -14.26,2.56 -2.65,-6.18 -1.06,-16.69 -1.06,-23.99 -11.21,4.87 -18.84,17.46 -33.24,12.48 0.41,-7.34 8.54,-10.31 14.01,-13.9l15.14 -11.22c-2.39,-2.15 -25.76,-18.68 -22.41,-13.3z"/>
   <path class="fil0" d="M525.73 103.07c-7.41,-2.79 -25.87,-22.21 -33.01,-6.39 2.63,4.85 23.67,17.81 29.34,20.25 -0.21,0.35 -0.57,0.41 -0.72,0.98 -0.59,2.33 -20.15,14.53 -22.71,16.13 -5.09,3.19 -5.11,1.77 -6.13,7.11 8.87,10.78 24.38,-6.98 33.37,-10.5l0.15 19.48c0.06,0.37 0.1,0.72 0.19,1.06 2.12,8.66 12.43,2.86 15.62,-0.02l0.27 -19.51c7.82,3.34 24.22,21.81 33.21,6.89 -3.49,-6.14 -20.04,-14.17 -25.78,-18.86l-3.53 -3.81c5.23,-2.43 27.54,-16.91 29.79,-20.83 -5.96,-13.79 -26.5,6.31 -33.55,9.43 -0.19,-3.43 -0.31,-7.05 -0.32,-10.48 -0.02,-5.96 -1.14,-7.12 2.98,-9.39l-2 -1.64c-1.5,-1.3 -6.67,-7.25 -14.35,-1.41 -4.43,3.37 -2.31,14.67 -2.82,21.52z"/>
   <path class="fil0" d="M280.45 83.05l0.33 -2.06 -6.46 1.15c-6.28,-5.34 4.6,2.59 -1.41,-1.25 -5.03,-3.22 -8.51,-1.52 -14.07,1.61l-0.91 21.34c-12.86,-5.78 -16.47,-17.74 -32.78,-6.57l28.5 20.34c-4.69,4.09 -10.08,7.11 -15.56,10.96 -5,3.52 -12.56,5.97 -13.57,12.59 9.41,11.39 24.18,-6.48 33.58,-10.03 0.14,7.5 -1.18,20.5 1.93,23.17 5.52,3.2 10.65,-0.06 13.89,-2.74l0.36 -20.68c9.43,4.22 21.17,19.82 32.38,6.35l-28.29 -19.29c6.1,-8.46 27.74,-15.06 29.52,-23.88 -7.66,-10.46 -19.89,0.65 -33.15,9.97 -0.79,-17.56 -2.5,-16.34 5.71,-20.98z"/>
   <path class="fil0" d="M96.87 101.66l0.78 2.65c-3.35,-5.39 20.02,11.15 22.41,13.3l-15.14 11.22c-5.47,3.59 -13.6,6.56 -14.01,13.9 14.41,4.97 22.03,-7.61 33.24,-12.48 0,7.3 -1.59,17.81 1.06,23.99 5.27,3.02 12.22,1.46 14.26,-2.56 1.86,-3.67 0.8,-15.4 0.8,-20.15l18.63 11.41c-2.69,1.73 -3.86,2.09 -6.09,5.26l2.4 0.58c0.68,-2.31 4.1,-3.83 7.58,-5.31 4.2,-1.8 7.87,-3.25 10.7,-4.68 -1.95,-5.19 -24.65,-17.84 -29.76,-21.45 11.99,-11.81 28.95,-15.29 29.91,-24.97 -14.21,-6.22 -21.59,7.37 -33.2,12.11 -0.51,-10.14 3.99,-27.14 -8.21,-25.48 -9.91,1.34 -7.6,8.27 -8.17,24.53 -10.12,-4.02 -20.17,-19.71 -32.85,-6.85 1.54,2.89 1.68,2.39 5.67,4.98z"/>
   <path class="fil0" d="M416.41 94.79l0.41 -1.94c-3.22,1.35 -5.9,2.95 -8.55,4.41l-0.31 -16.33c-21.06,-1.22 -14.49,8.18 -16.31,21.94 -8.94,-5.06 -21.97,-20.09 -33.36,-7.78 1.35,6.33 8.44,8.93 13.66,12.39 6,3.99 11.6,7.1 16.35,11.43 -3.35,3.89 -10.59,7.96 -15.35,11.08 -4.67,3.07 -12.67,6.32 -13.93,12.57 14.48,3.25 21.51,-8.2 33.1,-13.67l0.1 24.78c7.55,1.16 10.86,-0.7 15.59,-2.92l0.31 -18.39c8.34,2.18 26.02,23.56 33.68,6.17 -2.49,-5.04 -24.89,-19.29 -30.41,-21.89 0.2,-0.28 0.55,-1.05 0.67,-0.82l6.76 -5.41c6.44,-4.19 20.91,-12.37 22.5,-17.47 -13.7,-6.21 -22.55,9.87 -33.28,12.66 0.03,-8.1 2.39,-7.51 8.36,-10.82z"/>
  </g>
 </g>
</svg>
